/vscmnt/brussel_pixiu_data/_data_brussel/112/vsc11236/PredSimResults/SUBJ07mtu3D/worker5.mot
version=1
nRows=11
nColumns=50
inDegrees=yes
endheader
                time	         pelvis_tilt	         pelvis_list	     pelvis_rotation	           pelvis_tx	           pelvis_ty	           pelvis_tz	       hip_flexion_r	     hip_adduction_r	      hip_rotation_r	        knee_angle_r	       ankle_angle_r	         mtp_angle_r	       hip_flexion_l	     hip_adduction_l	      hip_rotation_l	        knee_angle_l	       ankle_angle_l	         mtp_angle_l	    lumbar_extension	      lumbar_bending	     lumbar_rotation	 ercspn_r/activation	 intobl_r/activation	 extobl_r/activation	    abd_r/activation	    add_r/activation	hamstrings_r/activation	bifemsh_r/activation	glut_max_r/activation	iliopsoas_r/activation	rect_fem_r/activation	  vasti_r/activation	gastroc_r/activation	 soleus_r/activation	tib_ant_r/activation	 ercspn_l/activation	 intobl_l/activation	 extobl_l/activation	    abd_l/activation	    add_l/activation	hamstrings_l/activation	bifemsh_l/activation	glut_max_l/activation	iliopsoas_l/activation	rect_fem_l/activation	  vasti_l/activation	gastroc_l/activation	 soleus_l/activation	tib_ant_l/activation	
          0.00000000	         -4.29423510	         -0.07417902	          8.49751208	          0.00000000	          0.84933009	         -0.01349193	         30.26013521	         -2.17154000	         -3.91840781	         -6.66836998	          4.00333553	          0.26446356	        -14.26707852	          0.47292132	          4.39915600	         -8.52658543	          8.72347231	         26.52997100	         -9.25578053	         -1.65005214	         -2.23134857	          0.11228268	          0.15264438	          0.01000000	          0.02571576	          0.11672478	          0.05622939	          0.13131268	          0.06745322	          0.03038065	          0.01000102	          0.00999999	          0.00999999	          0.00999999	          0.38134330	          0.11636380	          0.00999999	          0.00999999	          0.03853216	          0.01000004	          0.01470756	          0.14375663	          0.01658383	          0.21781031	          0.01183659	          0.01000000	          0.13059879	          0.28178364	          0.01969310	
          0.01101977	         -4.30811578	         -0.02207916	          8.46224291	          0.01570027	          0.84776250	         -0.01342256	         30.00344629	         -1.96052048	         -3.51146690	         -8.04462766	          3.71763779	          0.24890746	        -14.69353579	          0.45248866	          4.01109269	         -9.64620594	          7.84420702	         28.15033621	         -9.12629226	         -1.22369523	         -2.42494450	          0.09486036	          0.13496708	          0.00999999	          0.02172562	          0.09861321	          0.05436266	          0.12392616	          0.11961697	          0.02566664	          0.01000000	          0.00999999	          0.01675453	          0.01285215	          0.40968299	          0.13291067	          0.00999999	          0.01000003	          0.03255333	          0.01966294	          0.01242558	          0.12145067	          0.01401060	          0.18401383	          0.01000000	          0.00999999	          0.11033446	          0.26228865	          0.01663742	
          0.02203953	         -4.31620265	          0.02345772	          8.37415515	          0.03155427	          0.84641269	         -0.01327409	         29.66705092	         -1.79251638	         -3.12907411	         -9.32363508	          3.32901923	          0.24551752	        -14.98823578	          0.43923634	          3.58340138	        -11.01579058	          6.84129959	         29.72197306	         -8.98873952	         -0.78552333	         -2.60532542	          0.12602543	          0.11402495	          0.00999999	          0.10203981	          0.11110781	          0.05078853	          0.10469732	          0.12627733	          0.02168409	          0.00999999	          0.00999999	          0.01415481	          0.01085795	          0.46097222	          0.14821357	          0.00999999	          0.00999999	          0.02750220	          0.01661194	          0.01049759	          0.10260580	          0.01183665	          0.15546138	          0.01000004	          0.00999999	          0.09321444	          0.23318570	          0.01405588	
          0.03305930	         -4.32005848	          0.08413402	          8.23657704	          0.04737035	          0.84545744	         -0.01302788	         29.33344426	         -1.64029395	         -2.82202255	        -10.58649042	          2.89865546	          0.22583209	        -15.07063964	          0.45668876	          3.12610616	        -12.74774501	          5.68914240	         31.18520271	         -8.86510997	         -0.36229386	         -2.77105537	          0.13173410	          0.09633229	          0.00999999	          0.14843687	          0.13592208	          0.04384155	          0.08845199	          0.14798037	          0.01831948	          0.01000000	          0.01000000	          0.01195849	          0.00999999	          0.48291464	          0.18644350	          0.00999999	          0.00999999	          0.02323482	          0.01706224	          0.01013432	          0.08668500	          0.01000002	          0.13133925	          0.01000002	          0.01000000	          0.07875084	          0.19700350	          0.01187490	
          0.04407907	         -4.31958210	          0.15115696	          8.05744396	          0.06301437	          0.84502654	         -0.01268546	         29.06112270	         -1.48965106	         -2.56416395	        -11.98126100	          2.68884260	          0.20838082	        -14.86802408	          0.49399902	          2.64513125	        -14.94707681	          4.40768154	         32.39966352	         -8.76322674	          0.05214945	         -2.92323746	          0.14075079	          0.08138491	          0.00999999	          0.18444831	          0.15644126	          0.04123395	          0.07472736	          0.16835586	          0.01547694	          0.01000000	          0.02594894	          0.01010295	          0.01000000	          0.48746210	          0.21913015	          0.00999999	          0.00999999	          0.01962960	          0.03671449	          0.01111311	          0.07323454	          0.00999999	          0.11096003	          0.01000001	          0.00999999	          0.06653148	          0.16643549	          0.01003234	
          0.05509883	         -4.31581845	          0.22494449	          7.83910820	          0.07839818	          0.84523274	         -0.01226097	         28.82330311	         -1.34232571	         -2.35002569	        -13.43717147	          2.67387188	          0.19134885	        -14.31500121	          0.55102915	          2.12951893	        -17.70550322	          3.00948026	         33.16919998	         -8.68523091	          0.45463036	         -3.05980679	          0.14419323	          0.06875684	          0.00999999	          0.20338603	          0.17402720	          0.04054627	          0.06313231	          0.17439108	          0.01307547	          0.01000000	          0.05391926	          0.01000000	          0.01000000	          0.47442831	          0.24073415	          0.00999999	          0.00999999	          0.01658378	          0.06233581	          0.01000021	          0.06187113	          0.00999999	          0.09374294	          0.01000000	          0.00999999	          0.05620814	          0.14061056	          0.00999999	
          0.06611860	         -4.31018402	          0.30734336	          7.58260248	          0.09349785	          0.84612210	         -0.01177275	         28.53721518	         -1.19698591	         -2.16414436	        -14.79231874	          2.82022687	          0.17762249	        -13.36908187	          0.62382787	          1.57576657	        -21.07067604	          1.46335345	         33.32683653	         -8.62665691	          0.84131454	         -3.17765289	          0.13816411	          0.05808820	          0.00999999	          0.20534144	          0.18228583	          0.04151816	          0.05333641	          0.17161550	          0.01104662	          0.01000000	          0.07482386	          0.01000002	          0.01000001	          0.45258307	          0.24718772	          0.00999999	          0.00999999	          0.01401056	          0.08126052	          0.01000015	          0.05227091	          0.00999999	          0.07919734	          0.01000000	          0.00999999	          0.04748662	          0.11879276	          0.00999999	
          0.07713837	         -4.30399850	          0.39640815	          7.28923787	          0.10832252	          0.84764207	         -0.01122926	         28.13307173	         -1.04812414	         -1.98342178	        -15.91311800	          3.08953132	          0.17160221	        -12.02221951	          0.70004365	          1.00407873	        -24.99891227	         -0.38205073	         32.88245851	         -8.58180592	          1.21159624	         -3.27449836	          0.11672591	          0.04907496	          0.00999999	          0.19960173	          0.18185444	          0.04898401	          0.04506048	          0.15557413	          0.00999999	          0.01000000	          0.09868005	          0.01000000	          0.00999999	          0.42483493	          0.25104891	          0.00999999	          0.00999999	          0.01183661	          0.09564454	          0.01000004	          0.04416031	          0.00999999	          0.06690870	          0.01000000	          0.00999999	          0.04011836	          0.10036030	          0.01000000	
          0.08815814	         -4.29852629	          0.49119824	          6.95953894	          0.12286335	          0.84968180	         -0.01062779	         27.57300804	         -0.89044505	         -1.77143148	        -16.72162648	          3.44724453	          0.17970566	        -10.29533630	          0.77211806	          0.44970688	        -29.39970305	         -2.52249435	         31.61856227	         -8.55119480	          1.56202421	         -3.34985957	          0.09861416	          0.04146025	          0.01000000	          0.20314593	          0.16926020	          0.05564130	          0.03806869	          0.13143451	          0.01000000	          0.01000000	          0.11086179	          0.01000002	          0.01000000	          0.38930949	          0.23859589	          0.01000000	          0.00999999	          0.00999999	          0.10087395	          0.01658377	          0.03730819	          0.00999999	          0.05652683	          0.00999999	          0.00999999	          0.03389341	          0.08478792	          0.06216965	
          0.09917790	         -4.29508905	          0.58018584	          6.60200034	          0.13705855	          0.85206469	         -0.00999497	         26.87403366	         -0.71636065	         -1.50262196	        -17.23481086	          3.86498001	          0.22099661	         -8.24228046	          0.83676580	         -0.03305083	        -34.16835111	         -4.60859845	         29.04664081	         -8.54199917	          1.90484878	         -3.40570884	          0.08331271	          0.03502708	          0.00999999	          0.21020935	          0.14299698	          0.06353546	          0.03216178	          0.11104052	          0.00999999	          0.00999999	          0.13097693	          0.01000000	          0.00999999	          0.36083157	          0.24889878	          0.04377329	          0.01000000	          0.01000000	          0.08522187	          0.01401057	          0.03151928	          0.01251414	          0.04775586	          0.01655483	          0.00999999	          0.02863434	          0.07163182	          0.20907994	
          0.11019767	         -4.29414186	          0.66176367	          6.21996828	          0.15087847	          0.85459829	         -0.00935034	         26.05261885	         -0.53107727	         -1.18373081	        -17.46526173	          4.26878767	          0.29902300	         -5.99538735	          0.92791717	         -0.40606398	        -39.06827076	         -5.83660848	         25.38911665	         -8.55860644	          2.23470061	         -3.43478788	          0.07038552	          0.02959211	          0.00999999	          0.20633232	          0.12080889	          0.06525648	          0.02717141	          0.09381095	          0.00999999	          0.00999999	          0.13755564	          0.01000000	          0.00999999	          0.33383003	          0.24983986	          0.03698129	          0.01401052	          0.01183662	          0.07199844	          0.01183664	          0.02662861	          0.01160078	          0.04034583	          0.01398618	          0.00999999	          0.02419134	          0.06051708	          0.21912246	
